<svg xmlns="http://www.w3.org/2000/svg" xmlns:xlink="http://www.w3.org/1999/xlink" viewBox="0 0 297.15 252.69"><defs><style>.cls-1{isolation:isolate;}.cls-2,.cls-29,.cls-3,.cls-4{mix-blend-mode:multiply;}.cls-2{fill:url(#linear-gradient);}.cls-3{fill:url(#linear-gradient-2);}.cls-4{fill:url(#linear-gradient-3);}.cls-5{fill:url(#linear-gradient-4);}.cls-6{fill:url(#linear-gradient-5);}.cls-7{fill:url(#linear-gradient-6);}.cls-8{fill:url(#linear-gradient-7);}.cls-9{fill:url(#linear-gradient-8);}.cls-10{fill:url(#linear-gradient-9);}.cls-11{fill:url(#linear-gradient-10);}.cls-12{fill:url(#linear-gradient-11);}.cls-13{fill:url(#linear-gradient-12);}.cls-14{fill:#84d2e6;}.cls-15{fill:#97deef;}.cls-16{fill:#fff;}.cls-17{fill:#f2ec22;}.cls-18{fill:#a7a7a7;}.cls-19{fill:#dbd8d5;}.cls-20{fill:#7c7b79;}.cls-21{fill:#23538c;}.cls-22{fill:#144270;}.cls-23{fill:#0e2142;}.cls-24{fill:#fcd7a3;}.cls-25{fill:#0f2145;}.cls-26{fill:#f23436;}.cls-27{fill:#fe6f71;}.cls-28{fill:url(#linear-gradient-13);}.cls-29{fill:#d3d3d3;}.cls-30{fill:#dbd9dd;}.cls-31{fill:url(#linear-gradient-14);}.cls-32{fill:url(#linear-gradient-15);}.cls-33{fill:#d7f4f9;}.cls-34{fill:url(#linear-gradient-16);}.cls-35{fill:url(#linear-gradient-17);}.cls-36{fill:#27bfe2;}.cls-37{fill:#0cacc6;}.cls-38{fill:#028b99;}.cls-39{fill:#fcfcd4;}.cls-40{fill:#dd4536;}.cls-41{fill:#2bb673;}.cls-42{fill:#1c75bc;}.cls-43{fill:#14035b;}.cls-44{fill:#0e0e30;}.cls-45{fill:url(#linear-gradient-18);}.cls-46{fill:url(#linear-gradient-19);}.cls-47{fill:#230482;}.cls-48{fill:#ffc2a9;}.cls-49{fill:url(#linear-gradient-20);}.cls-50{fill:url(#linear-gradient-21);}.cls-51{fill:#efab92;}.cls-52{fill:#ef9d84;}.cls-53{fill:#191f54;}.cls-54{fill:url(#linear-gradient-22);}.cls-55{fill:url(#linear-gradient-23);}.cls-56{fill:url(#linear-gradient-24);}.cls-57{fill:#e29d88;}.cls-58{fill:#617375;}.cls-59{fill:#889ca0;}.cls-60{fill:url(#linear-gradient-25);}</style><linearGradient id="linear-gradient" x1="238.26" y1="42.95" x2="270.09" y2="42.95" gradientUnits="userSpaceOnUse"><stop offset="0" stop-color="#fff0db"/><stop offset="0.26" stop-color="#ffecdd"/><stop offset="0.52" stop-color="#ffe0e1"/><stop offset="0.77" stop-color="#ffcce9"/><stop offset="1" stop-color="#ffb4f2"/></linearGradient><linearGradient id="linear-gradient-2" x1="225.23" y1="121.79" x2="297.15" y2="121.79" xlink:href="#linear-gradient"/><linearGradient id="linear-gradient-3" x1="5.47" y1="126.35" x2="263.91" y2="126.35" xlink:href="#linear-gradient"/><linearGradient id="linear-gradient-4" x1="29.25" y1="154.19" x2="3.23" y2="129.46" gradientUnits="userSpaceOnUse"><stop offset="0" stop-color="#006838"/><stop offset="1" stop-color="#47e51d"/></linearGradient><linearGradient id="linear-gradient-5" x1="46.37" y1="161.96" x2="65.97" y2="145.43" xlink:href="#linear-gradient-4"/><linearGradient id="linear-gradient-6" x1="51.57" y1="146.08" x2="66.01" y2="104.38" xlink:href="#linear-gradient-4"/><linearGradient id="linear-gradient-7" x1="35.97" y1="147.95" x2="25.59" y2="121.29" xlink:href="#linear-gradient-4"/><linearGradient id="linear-gradient-8" x1="37.08" y1="135.53" x2="37.09" y2="135.44" xlink:href="#linear-gradient-4"/><linearGradient id="linear-gradient-9" x1="39.31" y1="159.7" x2="41.49" y2="126.51" xlink:href="#linear-gradient-4"/><linearGradient id="linear-gradient-10" x1="45.11" y1="121.99" x2="45.15" y2="121.37" xlink:href="#linear-gradient-4"/><linearGradient id="linear-gradient-11" x1="23.32" y1="186.57" x2="57.48" y2="186.57" gradientUnits="userSpaceOnUse"><stop offset="0" stop-color="#700d2a"/><stop offset="0.56" stop-color="#dd4536"/><stop offset="1" stop-color="#f7a458"/></linearGradient><linearGradient id="linear-gradient-12" x1="18.91" y1="165.77" x2="61.89" y2="165.77" xlink:href="#linear-gradient-11"/><linearGradient id="linear-gradient-13" x1="227.69" y1="168.77" x2="277.97" y2="168.77" xlink:href="#linear-gradient-11"/><linearGradient id="linear-gradient-14" x1="149.9" y1="34.34" x2="149.9" y2="161.51" gradientUnits="userSpaceOnUse"><stop offset="0" stop-color="#27aae1"/><stop offset="1" stop-color="#0d1b5a"/></linearGradient><linearGradient id="linear-gradient-15" x1="64.3" y1="90.13" x2="235.5" y2="90.13" gradientUnits="userSpaceOnUse"><stop offset="0" stop-color="#e4f2ff"/><stop offset="1" stop-color="#91d0c5"/></linearGradient><linearGradient id="linear-gradient-16" x1="80.81" y1="109.79" x2="80.81" y2="206.46" xlink:href="#linear-gradient-14"/><linearGradient id="linear-gradient-17" x1="57.2" y1="153.84" x2="104.42" y2="153.84" xlink:href="#linear-gradient-15"/><linearGradient id="linear-gradient-18" x1="193.95" y1="164.26" x2="221.61" y2="164.26" gradientUnits="userSpaceOnUse"><stop offset="0" stop-color="#23538c"/><stop offset="1" stop-color="#230482"/></linearGradient><linearGradient id="linear-gradient-19" x1="197.36" y1="109.13" x2="223.04" y2="109.13" xlink:href="#linear-gradient-15"/><linearGradient id="linear-gradient-20" x1="190.18" y1="104.75" x2="197.27" y2="104.75" xlink:href="#linear-gradient-18"/><linearGradient id="linear-gradient-21" x1="203.07" y1="99.73" x2="224.06" y2="99.73" xlink:href="#linear-gradient-18"/><linearGradient id="linear-gradient-22" x1="127.57" y1="178.63" x2="173.05" y2="178.63" xlink:href="#linear-gradient-18"/><linearGradient id="linear-gradient-23" x1="121.51" y1="181.07" x2="160.64" y2="181.07" xlink:href="#linear-gradient-18"/><linearGradient id="linear-gradient-24" x1="119.68" y1="148.63" x2="145.07" y2="148.63" gradientUnits="userSpaceOnUse"><stop offset="0" stop-color="#91d01d"/><stop offset="1" stop-color="#f9ed32"/></linearGradient><linearGradient id="linear-gradient-25" x1="147.37" y1="211.84" x2="147.37" y2="203.88" xlink:href="#linear-gradient-11"/></defs><g class="cls-1"><g id="Layer_2" data-name="Layer 2"><g id="OBJECTS"><path class="cls-2" d="M262.76,31.58c-4.34-3.94-10.7-5.8-16.32-4.13a15.22,15.22,0,0,0-6.74,4.18c-2.58,4.61-1.38,10.51,1.22,15.11,3.81,6.74,10.84,11.87,18.58,12.29,2.74.15,5.67-.35,7.71-2.19,2.59-2.33,3.1-6.21,2.81-9.68A23.77,23.77,0,0,0,262.76,31.58Z"/><path class="cls-3" d="M272.55,79.34a25.43,25.43,0,0,0-16.19.46c-8.4,3-22.29,10.15-28.31,26-8.92,23.41,5,51.84,18.39,57.41s39,.56,46.82-15.6C300.34,132.9,300.08,88,272.55,79.34Z"/><path class="cls-4" d="M204,140c-7-32.29,38.22-54.83,17-88.5C197.56,14.26,155-3.72,111.71.64A118.5,118.5,0,0,0,81.93,7.19C51.3,18.86,26.41,43,14.51,73.48c-9,23.18-13.14,48.31-3.49,72,4.21,10.28,13.18,18.85,16.05,29.43,4.14,15.32.14,32.24,5.51,47.16,8,22.32,34.78,26.93,55.27,22.71,16.19-3.34,31.08-13.47,47.71-14.85,19.2-1.58,33.59,9,50.14,16.38,26.38,11.76,67.78,9.35,76.86-23.76a40.41,40.41,0,0,0-8.87-37.13C239.44,169.67,208.9,162.91,204,140Z"/><path class="cls-5" d="M26,137.33c-5.35-2.1.57,8-.39,6.88S13.76,123,10.32,126.64s2.49,9.35,1.72,9-11.65-13-12-6.49,10.12,12.6,10.12,12.6S1,139.62,5,143.63s13.17,6.69,13.17,6.69-9.55-1-5.34,2.29S26,157.77,26,157.77s-8.6.19-4.21,1.72,17.57,5.34,17.57,5.34S31.33,139.43,26,137.33Z"/><path class="cls-6" d="M62.66,145c-1.91.76,1-1.91,1.52-8.59s-11.26,12.22-12.6,13.17.38-1-.77-6.3-11.84,22-11.84,22S59,159.68,63,158.34s-1.91-3.25-1.91-3.25,9,.58,14.13-1.52-5.54-3.63-6.68-4.59,5.34-1.34,9.74-9.17S64.57,144.21,62.66,145Z"/><path class="cls-7" d="M63.42,129.69c-1.72.77,5-7.83,5.54-13.56s-12,12-13.18,14.33.95-4-.76-9.75-7.26,16.62-8.22,18.72-.19-2.1-2.67-8-4.78,32.85-4.58,33.81c0,0,9-8.41,11.65-13.37s-1.15-4-1.15-4a60.45,60.45,0,0,0,9.74-5.92c3.44-2.87-3.25-4.59-3.06-5.16s10.51-4,14.14-8.21S65.14,128.93,63.42,129.69Z"/><path class="cls-8" d="M36.87,144.21a65.42,65.42,0,0,0,2.48-11.46c.39-4.78-4.39-1.53-4.39-1.53s1.15-8.79-.38-15.28-2.48,6.11-3.06,6.88-1.52-3.25-6.87-9.36,3.82,14.13,4.39,17-1.14-1.53-7.26-3.44S30,146.31,30,147.26s-1-1.53-5.73-3,14.32,19.1,15.08,20.62c0,0,1.53-13.56,2.11-18.9S36.87,144.21,36.87,144.21Z"/><path class="cls-9" d="M37,135.37a.11.11,0,0,1,0,0C37.17,135.63,37.17,135.56,37,135.37Z"/><path class="cls-10" d="M44.32,111.36s-.57-7.64-4.58-11.27-1.34,19.1-1.53,20.24-1-2.67-5.35-4.2,3.59,18,4.18,19.24c.13.19.13.26,0,0a.11.11,0,0,0,0,0c-.35-.54-1.69-2.1-4.75-2.24-4.2-.19,6.87,31.32,6.87,31.9,0,0,7.45-8.41,8.22-12.23s-4.4-1.34-4.4-1.34,4-3.62,6.88-11.45-5.92-2.11-6.11-2.68,6.49-5.16,8.21-14.71c1.31-7.29-3.72-3.77-6.18-1.71a15,15,0,0,1-1.27,1.14s.52-.5,1.27-1.14A25.65,25.65,0,0,0,53.3,106.2C54.63,96.08,44.32,111.36,44.32,111.36Z"/><path class="cls-11" d="M45.78,120.91c-.75.64-1.27,1.14-1.27,1.14A15,15,0,0,0,45.78,120.91Z"/><polygon class="cls-12" points="28.83 205.03 51.97 205.03 57.48 168.11 23.32 168.11 28.83 205.03"/><rect class="cls-13" x="18.91" y="161.91" width="42.98" height="7.71" rx="1.48"/><path class="cls-14" d="M276.49,72.91l-12-3.76a2.08,2.08,0,0,0-2.6,1.35l-25.15,78.41a2.09,2.09,0,0,0,1.33,2.62l12.4,4.1a2.09,2.09,0,0,0,2.64-1.36l24.72-78.75A2.08,2.08,0,0,0,276.49,72.91Z"/><path class="cls-15" d="M261.92,70.5l-25.15,78.41a2.09,2.09,0,0,0,1.33,2.62l6.64,2.19,26.45-82.48-6.67-2.09A2.08,2.08,0,0,0,261.92,70.5Z"/><path class="cls-16" d="M267.06,78.34l-5.2-1.67a.35.35,0,1,0-.21.67L266.84,79a.36.36,0,0,0,.44-.23A.34.34,0,0,0,267.06,78.34Z"/><path class="cls-16" d="M264.13,79.25l-2.81-.9a.36.36,0,0,0-.44.23.35.35,0,0,0,.23.44l2.8.9a.34.34,0,0,0,.44-.23A.35.35,0,0,0,264.13,79.25Z"/><path class="cls-16" d="M263.59,80.93l-2.8-.89a.36.36,0,0,0-.45.22.36.36,0,0,0,.23.45l2.8.89a.35.35,0,0,0,.44-.22A.36.36,0,0,0,263.59,80.93Z"/><path class="cls-16" d="M263,82.72l-2.8-.9a.35.35,0,0,0-.21.67l2.8.9a.35.35,0,1,0,.21-.67Z"/><path class="cls-16" d="M262.51,84.3l-2.8-.9a.35.35,0,1,0-.22.67l2.8.9a.34.34,0,0,0,.44-.23A.35.35,0,0,0,262.51,84.3Z"/><path class="cls-16" d="M264.33,86.82l-5.19-1.66a.35.35,0,0,0-.21.67l5.19,1.66a.35.35,0,0,0,.44-.22A.35.35,0,0,0,264.33,86.82Z"/><path class="cls-16" d="M261.4,87.74l-2.8-.9a.35.35,0,0,0-.21.67l2.8.9a.35.35,0,0,0,.21-.67Z"/><path class="cls-16" d="M260.86,89.42l-2.8-.9a.36.36,0,0,0-.44.23.34.34,0,0,0,.23.44l2.8.9a.35.35,0,0,0,.21-.67Z"/><path class="cls-16" d="M260.29,91.21l-2.8-.9a.35.35,0,1,0-.21.67l2.8.9a.36.36,0,0,0,.44-.23A.34.34,0,0,0,260.29,91.21Z"/><path class="cls-16" d="M259.79,92.79l-2.81-.9a.35.35,0,1,0-.21.67l2.8.9a.34.34,0,0,0,.44-.23A.35.35,0,0,0,259.79,92.79Z"/><path class="cls-16" d="M261.61,95.31l-5.19-1.66a.35.35,0,0,0-.44.22.35.35,0,0,0,.23.45L261.4,96a.35.35,0,0,0,.21-.67Z"/><path class="cls-16" d="M258.68,96.23l-2.8-.9a.35.35,0,0,0-.21.67l2.8.9a.36.36,0,0,0,.44-.23A.34.34,0,0,0,258.68,96.23Z"/><path class="cls-16" d="M258.14,97.91l-2.8-.9a.35.35,0,0,0-.21.67l2.8.9a.35.35,0,1,0,.21-.67Z"/><path class="cls-16" d="M257.57,99.69l-2.8-.89a.35.35,0,0,0-.44.22.36.36,0,0,0,.22.45l2.81.89a.35.35,0,0,0,.44-.22A.35.35,0,0,0,257.57,99.69Z"/><path class="cls-16" d="M257.06,101.28l-2.8-.9a.35.35,0,0,0-.21.67l2.8.9a.36.36,0,0,0,.44-.23A.34.34,0,0,0,257.06,101.28Z"/><path class="cls-16" d="M258.89,103.8l-5.19-1.67a.35.35,0,0,0-.44.23.35.35,0,0,0,.22.44l5.2,1.67a.35.35,0,1,0,.21-.67Z"/><path class="cls-16" d="M256,104.72l-2.8-.9a.35.35,0,0,0-.44.22.36.36,0,0,0,.22.45l2.81.9a.37.37,0,0,0,.44-.23A.34.34,0,0,0,256,104.72Z"/><path class="cls-16" d="M255.42,106.4l-2.8-.9a.34.34,0,0,0-.44.23.35.35,0,0,0,.22.44l2.81.9a.35.35,0,1,0,.21-.67Z"/><path class="cls-16" d="M254.85,108.18l-2.8-.9a.35.35,0,0,0-.22.67l2.8.9a.35.35,0,1,0,.22-.67Z"/><path class="cls-16" d="M254.34,109.76l-2.8-.89a.35.35,0,0,0-.44.22.35.35,0,0,0,.23.45l2.8.89a.35.35,0,0,0,.44-.22A.35.35,0,0,0,254.34,109.76Z"/><path class="cls-16" d="M256.17,112.29,251,110.62a.35.35,0,0,0-.45.23.37.37,0,0,0,.23.44L256,113a.36.36,0,0,0,.45-.23A.35.35,0,0,0,256.17,112.29Z"/><path class="cls-16" d="M253.24,113.2l-2.8-.9a.36.36,0,0,0-.44.23.34.34,0,0,0,.22.44l2.8.9a.36.36,0,0,0,.45-.22A.36.36,0,0,0,253.24,113.2Z"/><path class="cls-16" d="M252.7,114.89l-2.8-.9a.34.34,0,0,0-.44.23.35.35,0,0,0,.22.44l2.8.9a.36.36,0,0,0,.45-.23A.35.35,0,0,0,252.7,114.89Z"/><path class="cls-16" d="M252.13,116.67l-2.8-.9a.35.35,0,1,0-.22.67l2.8.9a.34.34,0,0,0,.44-.23A.35.35,0,0,0,252.13,116.67Z"/><path class="cls-16" d="M251.62,118.25l-2.8-.9a.35.35,0,0,0-.44.23.35.35,0,0,0,.22.44l2.81.9a.35.35,0,0,0,.44-.23A.36.36,0,0,0,251.62,118.25Z"/><path class="cls-16" d="M253.45,120.77l-5.19-1.66a.35.35,0,1,0-.22.67l5.19,1.66a.35.35,0,0,0,.44-.22A.36.36,0,0,0,253.45,120.77Z"/><path class="cls-16" d="M250.52,121.69l-2.8-.9a.36.36,0,0,0-.45.23.36.36,0,0,0,.23.44l2.8.9a.34.34,0,0,0,.44-.23A.35.35,0,0,0,250.52,121.69Z"/><path class="cls-16" d="M250,123.37l-2.8-.89a.36.36,0,0,0-.45.22.36.36,0,0,0,.23.45l2.8.89a.34.34,0,0,0,.44-.22A.36.36,0,0,0,250,123.37Z"/><path class="cls-16" d="M249.41,125.16l-2.81-.9a.35.35,0,0,0-.21.67l2.8.9a.35.35,0,0,0,.44-.23A.35.35,0,0,0,249.41,125.16Z"/><path class="cls-16" d="M248.9,126.74l-2.8-.9a.35.35,0,1,0-.22.67l2.8.9a.35.35,0,0,0,.45-.23A.37.37,0,0,0,248.9,126.74Z"/><path class="cls-16" d="M250.72,129.26l-5.19-1.66a.35.35,0,0,0-.44.22.35.35,0,0,0,.23.45l5.19,1.66a.35.35,0,1,0,.21-.67Z"/><path class="cls-16" d="M247.8,130.18l-2.81-.9a.35.35,0,0,0-.21.67l2.8.9a.34.34,0,0,0,.44-.23A.35.35,0,0,0,247.8,130.18Z"/><path class="cls-16" d="M247.26,131.86l-2.81-.9a.36.36,0,0,0-.44.23.34.34,0,0,0,.23.44l2.8.9a.34.34,0,0,0,.44-.23A.35.35,0,0,0,247.26,131.86Z"/><path class="cls-16" d="M246.68,133.65l-2.8-.9a.35.35,0,0,0-.44.22.35.35,0,0,0,.23.45l2.8.9a.37.37,0,0,0,.44-.23A.34.34,0,0,0,246.68,133.65Z"/><path class="cls-16" d="M246.18,135.23l-2.81-.9a.35.35,0,0,0-.21.67l2.8.9a.35.35,0,0,0,.44-.23A.35.35,0,0,0,246.18,135.23Z"/><path class="cls-16" d="M248,137.75l-5.19-1.66a.35.35,0,0,0-.44.22.34.34,0,0,0,.23.44l5.19,1.67a.35.35,0,1,0,.21-.67Z"/><path class="cls-16" d="M245.07,138.67l-2.8-.9a.35.35,0,0,0-.21.67l2.8.9a.36.36,0,0,0,.44-.23A.34.34,0,0,0,245.07,138.67Z"/><path class="cls-16" d="M244.53,140.35l-2.8-.9a.35.35,0,0,0-.21.67l2.8.9a.35.35,0,1,0,.21-.67Z"/><path class="cls-16" d="M244,142.13l-2.8-.9a.37.37,0,0,0-.44.23.34.34,0,0,0,.23.44l2.8.9a.35.35,0,0,0,.44-.22A.35.35,0,0,0,244,142.13Z"/><path class="cls-16" d="M243.45,143.72l-2.8-.9a.35.35,0,0,0-.44.22.35.35,0,0,0,.23.45l2.8.89a.35.35,0,0,0,.44-.22A.34.34,0,0,0,243.45,143.72Z"/><path class="cls-17" d="M270.54,89.47l-2.61-.26a1.44,1.44,0,0,0-1.57,1.29l-.71,7.16,5.47.54.71-7.16A1.44,1.44,0,0,0,270.54,89.47Z"/><polygon class="cls-18" points="262.28 159.87 267.87 146.71 259.36 145.87 262.28 159.87"/><polygon class="cls-19" points="262.75 158.77 267.87 146.71 263.97 146.32 262.75 158.77"/><polygon class="cls-20" points="263.32 157.42 267.87 146.71 264.41 146.36 263.32 157.42"/><rect class="cls-21" x="240.57" y="117.68" width="50.88" height="8.69" rx="1.51" transform="translate(118.46 374.77) rotate(-84.37)"/><path class="cls-22" d="M264,97.78l-4.7,47.64a1.51,1.51,0,0,0,1.35,1.65l2.71.26,5-50.63-2.72-.27A1.5,1.5,0,0,0,264,97.78Z"/><path class="cls-17" d="M275.31,101.48l-11.81-1.17a.46.46,0,0,0-.49.4l-.43,4.4a.44.44,0,0,0,.4.49l10.16,1a.44.44,0,0,1,.4.49l-.89,9a.44.44,0,0,1-.49.4l-.24,0a.45.45,0,0,0-.48.57l1.44,4.85a.45.45,0,0,0,.38.32.47.47,0,0,0,.5-.41l1.48-15,.48-4.84A.45.45,0,0,0,275.31,101.48Z"/><polygon class="cls-23" points="262.28 159.87 263.31 157.44 261.74 157.29 262.28 159.87"/><path class="cls-23" d="M268.14,144.49l-8.61-.85a.47.47,0,0,0-.52.43l-.24,2.51a.49.49,0,0,0,.44.52l8.6.85a.48.48,0,0,0,.53-.44l.24-2.5A.48.48,0,0,0,268.14,144.49Z"/><path class="cls-24" d="M248.31,109.21l-9.25,2.43,10.33,39.48a3.48,3.48,0,0,0,.72,1.37l6.16,7.07a.31.31,0,0,0,.53-.13l1.88-9.19a3.42,3.42,0,0,0,0-1.56Z"/><path class="cls-25" d="M256.27,159.56a.31.31,0,0,0,.53-.13l.71-3.49-3.57.94Z"/><path class="cls-16" d="M245.23,110l-3.08.81,10.34,39.57a1.6,1.6,0,0,0,3.09-.81Z"/><path class="cls-26" d="M248.31,109.21l-3.08.81,10.35,39.57a1.59,1.59,0,0,0,3.08-.81Z"/><path class="cls-26" d="M242.15,110.83l-3.09.81,10.35,39.57a1.59,1.59,0,1,0,3.08-.81Z"/><path class="cls-27" d="M241.88,97.28l-3.08.81a3.19,3.19,0,0,0-2.28,3.9l2.18,8.27,9.25-2.43-2.17-8.27A3.2,3.2,0,0,0,241.88,97.28Z"/><rect class="cls-25" x="238.58" y="107.16" width="9.57" height="4.06" transform="translate(-19.76 65.47) rotate(-14.73)"/><path class="cls-28" d="M227.69,199.57a5.43,5.43,0,0,0,5.43,5.43h39.43a5.42,5.42,0,0,0,5.42-5.43v-67H227.69Z"/><path class="cls-29" d="M253.27,205h19.28a5.42,5.42,0,0,0,5.42-5.43v-67h-24.7Z"/><path class="cls-29" d="M268,205h4.59a5.42,5.42,0,0,0,5.42-5.43v-67H268Z"/><rect class="cls-16" x="226.73" y="131.31" width="52.16" height="5.5" rx="0.93"/><polygon class="cls-30" points="121.84 155.11 112.44 199.78 187.36 199.78 177.96 155.11 121.84 155.11"/><rect class="cls-31" x="60.09" y="30.49" width="179.62" height="136.82" rx="7.37"/><path class="cls-16" d="M60.09,159.94a7.37,7.37,0,0,0,7.37,7.37H232.34a7.37,7.37,0,0,0,7.37-7.37V147H60.09Z"/><rect class="cls-32" x="64.3" y="40.31" width="171.2" height="99.63"/><polygon class="cls-33" points="235.5 139.94 235.5 40.31 64.3 40.31 235.5 139.94"/><path class="cls-16" d="M196.09,194.5H103.71a5.86,5.86,0,0,0,0,11.71h92.38a5.86,5.86,0,1,0,0-11.71Z"/><rect class="cls-34" x="54.47" y="107.15" width="52.69" height="99.13" rx="4.5"/><rect class="cls-35" x="57.2" y="113.12" width="47.22" height="81.43"/><polygon class="cls-33" points="104.42 194.56 104.42 113.12 57.2 113.12 104.42 194.56"/><circle class="cls-16" cx="80.81" cy="156.72" r="21.75"/><path class="cls-36" d="M69.69,145l0,24.14L87.54,169l4.4-2.75V141.38H73.3A3.61,3.61,0,0,0,69.69,145Z"/><path class="cls-37" d="M69.69,145l0,24.14,3.75,0V141.38H73.3A3.61,3.61,0,0,0,69.69,145Z"/><path class="cls-38" d="M69.72,169.14a2.91,2.91,0,0,0,2.92,2.91h19.3v-.38a2.54,2.54,0,0,1,0-5.06v-.39H72.64A2.92,2.92,0,0,0,69.72,169.14Z"/><path class="cls-39" d="M70.1,169.14a2.54,2.54,0,0,0,2.54,2.54h19.3a2.54,2.54,0,0,1,0-5.06v0H72.64A2.55,2.55,0,0,0,70.1,169.14Z"/><path class="cls-14" d="M106.75,200.69a4.44,4.44,0,0,0,4.44,4.44h29.36v-.59a3.87,3.87,0,0,1,0-7.7v-.59H111.19A4.44,4.44,0,0,0,106.75,200.69Z"/><path class="cls-39" d="M107.32,200.69a3.87,3.87,0,0,0,3.87,3.87h29.36v0a3.87,3.87,0,0,1,0-7.7v0H111.19A3.87,3.87,0,0,0,107.32,200.69Z"/><path class="cls-40" d="M109.12,191.92a4.44,4.44,0,0,0,4.44,4.44h29.37v-.59a3.87,3.87,0,0,1,0-7.7v-.59H113.56A4.44,4.44,0,0,0,109.12,191.92Z"/><path class="cls-39" d="M109.69,191.92a3.87,3.87,0,0,0,3.87,3.87h29.37v0a3.87,3.87,0,0,1,0-7.7v0H113.56A3.87,3.87,0,0,0,109.69,191.92Z"/><path class="cls-41" d="M112.85,183.15h0a4.43,4.43,0,0,0,4.43,4.43h29.37V187a3.87,3.87,0,0,1,0-7.71v-.58H117.28A4.43,4.43,0,0,0,112.85,183.15Z"/><path class="cls-39" d="M113.41,183.15a3.88,3.88,0,0,0,3.87,3.87h29.37v0a3.87,3.87,0,0,1,0-7.71H117.28A3.87,3.87,0,0,0,113.41,183.15Z"/><path class="cls-42" d="M108.9,174.38a4.43,4.43,0,0,0,4.43,4.43H142.7v-.58a3.87,3.87,0,0,1,0-7.71v-.58H113.33A4.43,4.43,0,0,0,108.9,174.38Z"/><path class="cls-39" d="M109.46,174.38a3.88,3.88,0,0,0,3.87,3.87H142.7v0a3.87,3.87,0,0,1,0-7.71v0H113.33A3.88,3.88,0,0,0,109.46,174.38Z"/><path class="cls-43" d="M192,102.94c-.39,1.08-1.95,6.85.33,7.44s3.34.66,6.53-1,7.4-22.85,7.4-22.85-4.59.61-7.5,3.18S192.36,101.86,192,102.94Z"/><path class="cls-44" d="M208.42,204.07a30.48,30.48,0,0,0-.73-5h-5s-8.25,3.4-9.76,3.89a2.82,2.82,0,0,0-1.85,2.65c-.1.8,6.07,1.62,7.25,1.38s2.66-1.2,2.94-1.14.6.85.6.85,6,0,6.4-.16S208.34,205.44,208.42,204.07Z"/><path class="cls-44" d="M221.88,205.46a29.66,29.66,0,0,0-.72-5h-5s-8.25,3.39-9.76,3.89a2.82,2.82,0,0,0-1.85,2.65c-.1.8,6.07,1.62,7.24,1.38s2.67-1.2,2.95-1.14.6.84.6.84,6,0,6.4-.15S221.81,206.82,221.88,205.46Z"/><path class="cls-45" d="M219.08,162.66c.22-4.62,1.92-30.8,1.59-34s-22.35-1.42-22.35-1.42S194.5,157.2,194,164.76s6,35.22,6.61,35.45,7.59-.07,7.63-.81-5.25-29.86-4.78-33,4.88-26.57,4.88-26.57,1.36,24.11,1.28,25.77,2.93,35.79,3.72,36,8.09,0,8.28-.51S218.86,167.27,219.08,162.66Z"/><path class="cls-43" d="M208.1,141a7.13,7.13,0,0,1,.22-1.19,6,6,0,0,0-3.83,4.31c-.65,3.31-2.23,17.59-3.28,19.7s-4.34,2.86-3.55,4.06,2.23.45,3.28,4.81,4.47,20.6,3.95,23.16c-.31,1.5-1.75,3.1-2.51,4.38,2.26,0,5.81-.34,5.84-.87,0-.74-5.25-29.86-4.78-33C203.85,163.72,207.21,145.82,208.1,141Z"/><path class="cls-29" d="M219.08,162.66c.22-4.62,1.92-30.8,1.59-34s-22.35-1.42-22.35-1.42-.33,2.61-.81,6.47a10.44,10.44,0,0,0,6.19,2.6c4.87,0,11.31-1.8,12.23,3.16s-1.45,21.5-.66,28.42,3.42,26.61,3.15,29.92c-.18,2.24-2.57,3-3.13,3.9,2.43,0,6.17-.22,6.31-.61S218.86,167.27,219.08,162.66Z"/><path class="cls-46" d="M214.38,85.9A15,15,0,0,0,205,87.09,8.73,8.73,0,0,0,199.82,94c-.22,1.72-.54,4-1,6.7-1.18,7.08-1.46,28.58-1.46,28.58s-.1,2.11,9.3,3.15S222,130.78,222,130.78s-.19-16.18.75-25C224,93.94,221.58,87.61,214.38,85.9Z"/><path class="cls-47" d="M212.18,85.91a10.47,10.47,0,0,0-5.63,1s-1.91,1-2.07,2.35.93,2.27,3,2.32,3.43.15,5-.85,2.62-3,2.47-3.63S214.29,86.13,212.18,85.91Z"/><path class="cls-48" d="M197.44,93.67a3,3,0,0,0-3,2C194,97,193,99.85,193,99.85a32,32,0,0,0,3.29,1,11.64,11.64,0,0,0,.69-2.42c.08-.3.38-.32,1.35-.68a1.29,1.29,0,0,0,.85-1.34s1.08.53,1.66.24S198.78,93.69,197.44,93.67Z"/><path class="cls-49" d="M193.21,98.8a12.58,12.58,0,0,0-2.88,5.92c-.74,3.74,1.4,6.75,4.16,5.81s3.06-9.84,2.6-10.25A26.7,26.7,0,0,0,193.21,98.8Z"/><rect class="cls-44" x="195.96" y="92.99" width="5.33" height="9.6" rx="0.79" transform="translate(-16.26 44.53) rotate(-12.29)"/><path class="cls-48" d="M203.16,100.61c-.71-1.32-1-4.32-1.63-4.17s0,2.9-.28,3.08-1.87-.3-3-1.13-2.27-2.45-2.38-1.7,1,2,1.25,2.32l.06.08-.06-.08c-.24-.28-1.06-1.19-1.25-.68s1,1.94,1,1.94-1.23-1-1.19-.45a5,5,0,0,0,.95,1.73s-.73-.69-.7-.16.57,1.44,2.25,2.13,3.4.2,4.44.77a15.21,15.21,0,0,0,2,1.19,25.33,25.33,0,0,0,1.2-2.66A6.58,6.58,0,0,1,203.16,100.61Z"/><path class="cls-48" d="M197.14,99l.06.08Z"/><path class="cls-50" d="M214.15,85.84c-1.79.81.88,3.48,1.93,8.83.81,4.14,2.25,10.11.2,10.47s-11-3.55-11-3.55l-2.22,4.16s14.39,8.88,17.31,7.77,4.36-14.3,3.37-19.68C222.4,86.52,214.15,85.84,214.15,85.84Z"/><path class="cls-29" d="M214.15,85.84a1,1,0,0,0-.55.58c2.14.83,6,2.6,7,4.87,1.34,3.17,1.34,10.33,1,14.67s-2.33,4.83-6.83,3.5a90.38,90.38,0,0,1-11.14-4.7l-.53,1s14.39,8.88,17.31,7.77,4.36-14.3,3.37-19.68C222.4,86.52,214.15,85.84,214.15,85.84Z"/><path class="cls-51" d="M211,80.58l-3,3a4.84,4.84,0,0,1-.32,3c-.68,1-3.06,2-2.39,3.17s5,1.6,6.64.33,3.12-2.54,2.38-3.33A19.17,19.17,0,0,1,211,80.58Z"/><path class="cls-52" d="M211.73,80.64l-3.72,3a4.84,4.84,0,0,1-.32,3A9,9,0,0,1,206,88a4.65,4.65,0,0,0,2.93.36c2.08-.38,2.61.39,3.1,1.55,1.51-1.22,2.89-2.29,2.37-3.21A34.79,34.79,0,0,1,211.73,80.64Z"/><path class="cls-48" d="M204.1,69.9a5.93,5.93,0,0,0-4.69,5.7s.07,2.69.8,3.6a6.39,6.39,0,0,1,1.44,2.62c.22,1,1.44,4.54,4.64,6.07s5.73-3.66,6.47-5.74.39-7.22-.79-9.57S207.74,68.92,204.1,69.9Z"/><path class="cls-51" d="M204.1,69.9a5.93,5.93,0,0,0-4.69,5.7,14.91,14.91,0,0,0,.21,2c1.9-.62,5-1.42,6-.41,1.46,1.49,1.31,3.25,2.16,3.61a3.09,3.09,0,0,1,2.28,2.41,4.62,4.62,0,0,1-3.19,4.92c2.93.7,5.19-4,5.89-5.94s.39-7.22-.79-9.57S207.74,68.92,204.1,69.9Z"/><path class="cls-44" d="M212.22,69.78s-1.51-3.64-5.19-3.35-8.09,3.79-9.7,3.69-3.06-.52-2.73.51,1.11,1.32,1,1.63-1.64-.18-.86.89a3.7,3.7,0,0,0,1.57,1.34,1.24,1.24,0,0,0-.34,1.16c.21.64.41,1.28,2.42,1a20,20,0,0,0,7-2.12A4.88,4.88,0,0,0,208,76.65c1.58.29,1.55,2.4,2,1.83s.27-3.33,1.5-2.49.79,3.34.34,3.84c0,0,1,1.52,1.86.9s1.11-5.09.66-7.32A7,7,0,0,0,212.22,69.78Z"/><path class="cls-44" d="M177.28,199.39c-3.54-.53-4.07-.16-4.59-1.55s-6.83-.43-6.83-.43a23.58,23.58,0,0,0-.73,4.26,5.61,5.61,0,0,0,.23,2.57,44,44,0,0,0,10.35.33c5.16-.55,6.44-.46,6.58-.93a1.89,1.89,0,0,0-.08-1.6C181.89,201.66,180.82,199.91,177.28,199.39Z"/><path class="cls-53" d="M143,130.55c-3.48.14-4.32,1.81-4.46,5.57a75.33,75.33,0,0,0,.81,10.26l7.54-.8a94.12,94.12,0,0,0-.55-9.88C145.77,131.38,143,130.55,143,130.55Z"/><path class="cls-54" d="M142.48,158.71c-4.34-1.05-11.81-.9-14.36,5.53s4.34,7,7.63,7.93,20.64.89,22.13,1,2.18,6,3.52,9.41S165.35,199,165.35,199l7.63-.85c.6-2.7-3-33.5-5.38-35.59S142.48,158.71,142.48,158.71Z"/><path class="cls-29" d="M142.48,158.71a16.69,16.69,0,0,0-8.16,0c1.28.54,3.46.88,7.71.7,0,0,17.94,1.19,20.34,3s4.32,5.39,4.77,10c.36,3.72,3.05,21.48,3.45,25.94l2.39-.23c.6-2.7-1.19-31.7-5.38-35.59C162.79,158.13,142.48,158.71,142.48,158.71Z"/><path class="cls-44" d="M155.56,204.09c-3.46-.91-4.33-1.06-4.69-2.51s-6.74-1.17-6.74-1.17a22.67,22.67,0,0,0-1.2,4.14,5.7,5.7,0,0,0-.05,2.59,43.51,43.51,0,0,0,10.25,1.46c5.19,0,6.45-.24,6.64-.69s.4-.82.12-1.24S159,205,155.56,204.09Z"/><path class="cls-55" d="M126.92,159.83a4.28,4.28,0,0,0-3.53,1.86c-1.55,2.25-3.33,6,0,8.25,5.06,3.37,25.27,2.41,25.51,3.61s-5.58,28-5.58,28,6.06,1.07,7.5.59,11.07-31.28,9.63-37.06C159.26,160.21,134.31,159.83,126.92,159.83Z"/><path class="cls-29" d="M160.3,164.68a.71.71,0,0,0-.1-.14,2.92,2.92,0,0,0-.21-.28l-.19-.17a1.94,1.94,0,0,0-.26-.23,2.2,2.2,0,0,0-.25-.17l-.31-.21-.31-.16-.36-.19L158,163l-.42-.18-.4-.14-.47-.16-.45-.14-.5-.15-.51-.12c-.17-.05-.34-.1-.53-.14l-.55-.12-.55-.12-.58-.11-.6-.12-.59-.1-.63-.1-.64-.1-.63-.09-.65-.09-.67-.08-.66-.08-.69-.08-.67-.07-.71-.07-.68-.06-.7-.06-.71-.06-.69-.05-.7,0-.7-.05-.71,0-.69,0-.69,0-.7,0-.67,0-.69,0-.68,0-.65,0-.66,0-.63,0-.65,0-.61,0H133l-.6,0h-5.53a4.28,4.28,0,0,0-3.3,1.58c.4,1.43.92,1.84,5.39,3,6.91,1.73,18.56,2.73,21.38,2.83s5.1,1.61,5.65,5.25-1.91,14.1-2.82,17.47-3,9.07-6.27,10.07a10.91,10.91,0,0,1-3.35.55c-.14.68-.23,1.07-.23,1.07s.63.11,1.53.24l1,.14.16,0,1.11.14.14,0a11.46,11.46,0,0,0,3.58,0c1-.33,5.86-15,8.33-26,.11-.5.22-1,.32-1.48a57.84,57.84,0,0,0,1-6.35,10.6,10.6,0,0,0-.06-3.23A1.73,1.73,0,0,0,160.3,164.68Z"/><path class="cls-56" d="M144.53,132.9c-1.78-4.26-4.74-5.09-9.58-5.56,0,0-5.45.12-8.88,4.14s-6.38,23.66-6.38,27.56-.3,9.42,3.24,10.72-1.23-5.88,20.64-11.07c0,0-3.17-6.57-1.6-12.64C143.24,141.12,146.3,137.16,144.53,132.9Z"/><path class="cls-57" d="M140.36,124.36c-.33-.27-4.2-1.58-4.2-1.58a16.56,16.56,0,0,1-1.65,4.5c-.85,1.14-1.93,2.2-.57,3.5s5.39,2.73,6,1.54-.81-2.28-.86-4.12S140.68,124.63,140.36,124.36Z"/><path class="cls-48" d="M146.3,115.33c-3.18-1.61-6.25-1-7.8,1s-2.87,6.65-2.58,8.72,1.63,7.35,4.89,6.55a9,9,0,0,0,5.47-4.73,6,6,0,0,1,1.84-2.14c.85-.71,1.43-3.19,1.43-3.19A5.59,5.59,0,0,0,146.3,115.33Z"/><path class="cls-51" d="M146.3,115.33c-3.18-1.61-6.25-1-7.8,1s-2.87,6.65-2.58,8.72,1.47,6.71,4.32,6.63a4.37,4.37,0,0,1-2-5.17,2.93,2.93,0,0,1,2.58-1.8c.85-.16,1.05-1.83,2.69-2.93,1.1-.74,3.84.6,5.48,1.54a13.39,13.39,0,0,0,.57-1.78A5.59,5.59,0,0,0,146.3,115.33Z"/><path class="cls-44" d="M148.76,114.32c-1.46-1.18-3.16-2.43-5-2.21v-1.37a2.11,2.11,0,0,0-1.35.8,3.22,3.22,0,0,0-1.52-1.05l.54,1.29c-1.43-.38-2.22.49-3.11,1.39a8.67,8.67,0,0,0-2.13,2.64c-.88,2.09-1.54,6.49-.83,7.27s2-.5,2-.5c-.35-.57-.26-3.11,1.11-3.67s.64,2.08.95,2.73.7-1.42,2.3-1.38a4.82,4.82,0,0,0,3.06-1.54,26.22,26.22,0,0,1,2.28,1.82,4.58,4.58,0,0,0,2.94,1,6.26,6.26,0,0,0,2.51-.92,8.34,8.34,0,0,1-1.21-1.74,2.7,2.7,0,0,0,2.51-2.35C151.91,116.75,150.23,115.5,148.76,114.32Z"/><polygon class="cls-58" points="129.32 161.82 144.98 164.19 162.27 158.84 162.43 157.81 129.32 161 129.32 161.82"/><path class="cls-59" d="M129.32,161l15.61,2.12s17-5,17.38-5-14.9-1.57-14.9-1.57Z"/><path class="cls-58" d="M134.62,160.72l10.23,1.39c5.79-1.72,9.64-2.85,12.21-3.59l-9.58-1Z"/><path class="cls-48" d="M151.57,153.67c-1.16-.22-4.43-3.76-4.76-4.48a15.23,15.23,0,0,1-.27-3.57l-4.57.43a38.33,38.33,0,0,0,.42,5.69c.39,1.44,6.63,3.26,7.3,3.48s0,1.22.61,1.66.72-.72,1-1.1.83,1.05,1.39,1.66,2,.39,2.65,0,.34-1.88-.11-2.66S152.73,153.9,151.57,153.67Z"/><path class="cls-51" d="M145.77,151.21a5.32,5.32,0,0,1-1.71-5.36l-2.09.2a38.33,38.33,0,0,0,.42,5.69c.39,1.44,6.63,3.26,7.3,3.48s0,1.22.61,1.66.72-.72,1-1.1.83,1.05,1.39,1.66,2,.39,2.65,0c.45-.29.42-1.17.19-1.93C152.59,154.5,148,152.94,145.77,151.21Z"/><path class="cls-48" d="M138.78,153.32c-1.66-.36-14.55-4.26-14.9-5.32s1.77-3.79,1.77-3.79L120,142.79s-2.48,5.21-1.53,7.81,9.22,3.55,15.72,4.26l3.2.82a3.67,3.67,0,0,0,2.24,1.78c1.54.35,2.66.19,3.31.71s1.42,1.77,1.78,1.42a7.69,7.69,0,0,0,.83-4.5C145.16,153.56,140.43,153.67,138.78,153.32Z"/><path class="cls-51" d="M139.66,155.29c-.56-1.12-14.82-3.71-18-5-2.39-1-1-5.16-.26-7.12l-1.46-.37s-2.48,5.21-1.53,7.81,9.22,3.55,15.72,4.26l3.2.82a3.67,3.67,0,0,0,2.24,1.78c1.54.35,2.66.19,3.31.71s1.42,1.77,1.78,1.42a6.69,6.69,0,0,0,.81-2.48C143.8,156.47,140.1,156.17,139.66,155.29Z"/><path class="cls-53" d="M128.72,129.43c-5.79.36-9.93,13.6-9.93,13.6l7.21,3s6.15-8.16,6.15-12.3S128.72,129.43,128.72,129.43Z"/><path class="cls-58" d="M168.32,142.63l-16.64,4.06a1.69,1.69,0,0,0-1.19,1.07l-5.56,15.37,17.5-5.32L169,143.56C169.26,142.94,168.84,142.5,168.32,142.63Z"/><path class="cls-59" d="M168.66,143,152,147.07a1.7,1.7,0,0,0-1.19,1.08l-5.57,15.37,17.51-5.33L169,143.42A.3.3,0,0,0,168.66,143Z"/><rect class="cls-60" x="8.57" y="203.61" width="277.62" height="8.63" rx="2.51"/></g></g></g></svg>